<svg width="187" height="32" viewBox="0 0 187 32" fill="none" xmlns="http://www.w3.org/2000/svg">
<path d="M37.0095 5.95508H41.9398C45.051 5.95508 46.5815 7.7086 46.5815 10.9234V21.0887C46.5815 24.3035 45.051 26.057 41.9398 26.057H37.0095V5.95508ZM40.1207 8.82677V23.1726H41.877C42.8681 23.1726 43.4703 22.6516 43.4703 21.2157V10.7709C43.4703 9.33503 42.8681 8.82677 41.877 8.82677H40.1207Z" fill="white"/>
<path d="M61.5982 14.4177H65.8636V17.2894H61.5982V23.1726H66.9801V26.0443H58.487V5.95508H66.9801V8.82677H61.5982V14.4177Z" fill="white"/>
<path d="M81.5952 11.4957V26.0448H78.7976V5.95559H82.6992L85.9359 17.9633V5.94287H88.7209V26.0321H85.4842L81.5952 11.4957Z" fill="white"/>
<path d="M100.827 5.95508H103.951V26.0443H100.827V5.95508Z" fill="white"/>
<path d="M126.218 26.0443H123.069L122.53 22.3975H118.766L118.227 26.0443H115.304L118.478 5.95508H123.044L126.218 26.0443ZM119.105 19.6909H122.104L120.598 9.52564L119.105 19.6909Z" fill="white"/>
<path d="M146.893 10.5803V11.2919C146.893 13.363 146.266 14.6718 144.886 15.3326C146.554 15.9933 147.206 17.5181 147.206 19.6401V21.2793C147.206 24.3797 145.588 26.0443 142.477 26.0443H137.572V5.95508H142.276C145.5 5.95508 146.893 7.47987 146.893 10.5803ZM140.62 8.82677V14.1508H141.875C143.041 14.1508 143.757 13.6299 143.757 12.0161V10.898C143.757 9.46211 143.267 8.83949 142.163 8.83949L140.62 8.82677ZM140.62 16.9971V23.1726H142.414C143.455 23.1726 144.02 22.677 144.02 21.1903V19.4368C144.02 17.5816 143.43 16.9971 142.013 16.9971H140.62Z" fill="white"/>
<path d="M158.986 5.95508H162.098V23.1726H167.229V26.0443H158.986V5.95508Z" fill="white"/>
<path d="M181.618 14.4177H185.896V17.2894H181.618V23.1726H187V26.0443H178.507V5.95508H187V8.82677H181.618V14.4177Z" fill="white"/>
<path d="M0 0L4.32127 4.70912H19.2609V20.9807L23.9208 26.0571V0H0Z" fill="white"/>
<path d="M24.8235 32L20.4991 27.2909H5.56257V11.0193L0.902679 5.94287V32H24.8235Z" fill="#8D1DAC"/>
</svg>
